<svg width="117" height="21" viewBox="0 0 117 21" fill="none" xmlns="http://www.w3.org/2000/svg">
<path d="M11.9417 2.95773L13.4083 5.89106C13.6083 6.29939 14.1417 6.69106 14.5917 6.76606L17.25 7.20773C18.95 7.49106 19.35 8.72439 18.125 9.94106L16.0583 12.0077C15.7083 12.3577 15.5167 13.0327 15.625 13.5161L16.2167 16.0744C16.6833 18.0994 15.6083 18.8827 13.8167 17.8244L11.325 16.3494C10.875 16.0827 10.1333 16.0827 9.67499 16.3494L7.18332 17.8244C5.39999 18.8827 4.31665 18.0911 4.78332 16.0744L5.37499 13.5161C5.48332 13.0327 5.29165 12.3577 4.94165 12.0077L2.87499 9.94106C1.65832 8.72439 2.04999 7.49106 3.74999 7.20773L6.40832 6.76606C6.84999 6.69106 7.38332 6.29939 7.58332 5.89106L9.04999 2.95773C9.84999 1.36606 11.15 1.36606 11.9417 2.95773Z" fill="#F8CE09"/>
<path d="M35.9417 2.95773L37.4083 5.89106C37.6083 6.29939 38.1417 6.69106 38.5917 6.76606L41.25 7.20773C42.95 7.49106 43.35 8.72439 42.125 9.94106L40.0583 12.0077C39.7083 12.3577 39.5167 13.0327 39.625 13.5161L40.2167 16.0744C40.6833 18.0994 39.6083 18.8827 37.8167 17.8244L35.325 16.3494C34.875 16.0827 34.1333 16.0827 33.675 16.3494L31.1833 17.8244C29.4 18.8827 28.3167 18.0911 28.7833 16.0744L29.375 13.5161C29.4833 13.0327 29.2917 12.3577 28.9417 12.0077L26.875 9.94106C25.6583 8.72439 26.05 7.49106 27.75 7.20773L30.4083 6.76606C30.85 6.69106 31.3833 6.29939 31.5833 5.89106L33.05 2.95773C33.85 1.36606 35.15 1.36606 35.9417 2.95773Z" fill="#F8CE09"/>
<path d="M59.9417 2.95773L61.4083 5.89106C61.6083 6.29939 62.1417 6.69106 62.5917 6.76606L65.25 7.20773C66.95 7.49106 67.35 8.72439 66.125 9.94106L64.0583 12.0077C63.7083 12.3577 63.5167 13.0327 63.625 13.5161L64.2167 16.0744C64.6833 18.0994 63.6083 18.8827 61.8167 17.8244L59.325 16.3494C58.875 16.0827 58.1333 16.0827 57.675 16.3494L55.1833 17.8244C53.4 18.8827 52.3167 18.0911 52.7833 16.0744L53.375 13.5161C53.4833 13.0327 53.2917 12.3577 52.9417 12.0077L50.875 9.94106C49.6583 8.72439 50.05 7.49106 51.75 7.20773L54.4083 6.76606C54.85 6.69106 55.3833 6.29939 55.5833 5.89106L57.05 2.95773C57.85 1.36606 59.15 1.36606 59.9417 2.95773Z" fill="#F8CE09"/>
<path d="M83.9417 2.95773L85.4083 5.89106C85.6083 6.29939 86.1417 6.69106 86.5917 6.76606L89.25 7.20773C90.95 7.49106 91.35 8.72439 90.125 9.94106L88.0583 12.0077C87.7083 12.3577 87.5167 13.0327 87.625 13.5161L88.2167 16.0744C88.6833 18.0994 87.6083 18.8827 85.8167 17.8244L83.325 16.3494C82.875 16.0827 82.1333 16.0827 81.675 16.3494L79.1833 17.8244C77.4 18.8827 76.3167 18.0911 76.7833 16.0744L77.375 13.5161C77.4833 13.0327 77.2917 12.3577 76.9417 12.0077L74.875 9.94106C73.6583 8.72439 74.05 7.49106 75.75 7.20773L78.4083 6.76606C78.85 6.69106 79.3833 6.29939 79.5833 5.89106L81.05 2.95773C81.85 1.36606 83.15 1.36606 83.9417 2.95773Z" fill="#F8CE09"/>
<path d="M107.942 2.95773L109.408 5.89106C109.608 6.29939 110.142 6.69106 110.592 6.76606L113.25 7.20773C114.95 7.49106 115.35 8.72439 114.125 9.94106L112.058 12.0077C111.708 12.3577 111.517 13.0327 111.625 13.5161L112.217 16.0744C112.683 18.0994 111.608 18.8827 109.817 17.8244L107.325 16.3494C106.875 16.0827 106.133 16.0827 105.675 16.3494L103.183 17.8244C101.4 18.8827 100.317 18.0911 100.783 16.0744L101.375 13.5161C101.483 13.0327 101.292 12.3577 100.942 12.0077L98.875 9.94106C97.6583 8.72439 98.05 7.49106 99.75 7.20773L102.408 6.76606C102.85 6.69106 103.383 6.29939 103.583 5.89106L105.05 2.95773C105.85 1.36606 107.15 1.36606 107.942 2.95773Z" fill="#F8CE09"/>
</svg>
