<svg width="32" height="33" viewBox="0 0 32 33" fill="none" xmlns="http://www.w3.org/2000/svg">
<path d="M4.22667 10.6255L16 17.4389L27.6933 10.6655M16 29.5189V17.4255" stroke="black" stroke-width="1.5" stroke-linecap="round" stroke-linejoin="round"/>
<path d="M13.24 4.01225L6.11999 7.97225C4.50666 8.86559 3.18666 11.1056 3.18666 12.9456V20.4789C3.18666 22.3189 4.50666 24.5589 6.11999 25.4523L13.24 29.4123C14.76 30.2523 17.2533 30.2523 18.7733 29.4123L25.8933 25.4523C27.5067 24.5589 28.8267 22.3189 28.8267 20.4789V12.9456C28.8267 11.1056 27.5067 8.86559 25.8933 7.97225L18.7733 4.01225C17.24 3.15892 14.76 3.15892 13.24 4.01225Z" stroke="black" stroke-width="1.5" stroke-linecap="round" stroke-linejoin="round"/>
<path d="M22.6667 18.3589V13.4789L10.0133 6.17224" stroke="black" stroke-width="1.5" stroke-linecap="round" stroke-linejoin="round"/>
</svg>
