<svg width="32" height="33" viewBox="0 0 32 33" fill="none" xmlns="http://www.w3.org/2000/svg">
<path d="M16 19.3722H17.3333C18.8 19.3722 20 18.1722 20 16.7055V3.37219H8C6 3.37219 4.25333 4.47886 3.34666 6.10553" stroke="black" stroke-width="1.5" stroke-linecap="round" stroke-linejoin="round"/>
<path d="M2.66667 23.3722C2.66667 25.5855 4.45334 27.3722 6.66667 27.3722H8C8 25.9055 9.2 24.7055 10.6667 24.7055C12.1333 24.7055 13.3333 25.9055 13.3333 27.3722H18.6667C18.6667 25.9055 19.8667 24.7055 21.3333 24.7055C22.8 24.7055 24 25.9055 24 27.3722H25.3333C27.5467 27.3722 29.3333 25.5855 29.3333 23.3722V19.3722H25.3333C24.6 19.3722 24 18.7722 24 18.0389V14.0389C24 13.3055 24.6 12.7055 25.3333 12.7055H27.0533L24.7733 8.71886C24.5384 8.31089 24.2005 7.97177 23.7933 7.73544C23.3862 7.4991 22.9241 7.37384 22.4533 7.37219H20V16.7055C20 18.1722 18.8 19.3722 17.3333 19.3722H16" stroke="black" stroke-width="1.5" stroke-linecap="round" stroke-linejoin="round"/>
<path d="M2.66667 11.3722H10.6667M2.66667 15.3722H8M2.66667 19.3722H5.33334M10.6667 30.0389C11.3739 30.0389 12.0522 29.7579 12.5523 29.2578C13.0524 28.7577 13.3333 28.0794 13.3333 27.3722C13.3333 26.6649 13.0524 25.9867 12.5523 25.4866C12.0522 24.9865 11.3739 24.7055 10.6667 24.7055C9.95943 24.7055 9.28115 24.9865 8.78105 25.4866C8.28096 25.9867 8 26.6649 8 27.3722C8 28.0794 8.28096 28.7577 8.78105 29.2578C9.28115 29.7579 9.95943 30.0389 10.6667 30.0389ZM21.3333 30.0389C22.0406 30.0389 22.7189 29.7579 23.219 29.2578C23.7191 28.7577 24 28.0794 24 27.3722C24 26.6649 23.7191 25.9867 23.219 25.4866C22.7189 24.9865 22.0406 24.7055 21.3333 24.7055C20.6261 24.7055 19.9478 24.9865 19.4477 25.4866C18.9476 25.9867 18.6667 26.6649 18.6667 27.3722C18.6667 28.0794 18.9476 28.7577 19.4477 29.2578C19.9478 29.7579 20.6261 30.0389 21.3333 30.0389ZM29.3333 16.7055V19.3722H25.3333C24.6 19.3722 24 18.7722 24 18.0389V14.0389C24 13.3055 24.6 12.7055 25.3333 12.7055H27.0533L29.3333 16.7055Z" stroke="black" stroke-width="1.5" stroke-linecap="round" stroke-linejoin="round"/>
</svg>
