<svg width="32" height="33" viewBox="0 0 32 33" fill="none" xmlns="http://www.w3.org/2000/svg">
<path d="M16.0013 30.9989C12.4413 30.9989 8.86801 29.7189 6.16134 27.1455C3.32134 24.4522 1.72134 20.8255 1.66801 16.9322C1.61467 13.0255 3.10801 9.35887 5.86801 6.59887C11.4547 1.01221 20.548 1.01221 26.1347 6.59887C28.8947 9.35887 30.388 13.0255 30.3347 16.9322C30.2813 20.8389 28.6813 24.4655 25.8413 27.1455C23.1347 29.7189 19.5613 30.9989 16.0013 30.9989ZM16.0013 4.41221C12.8413 4.41221 9.68134 5.61221 7.28134 8.01221C6.11228 9.17566 5.18977 10.5628 4.56893 12.0909C3.9481 13.6189 3.64169 15.2564 3.66801 16.9055C3.6825 18.5559 4.0328 20.186 4.69756 21.6966C5.36231 23.2072 6.32762 24.5667 7.53467 25.6922C12.2013 30.1189 19.8013 30.1055 24.468 25.6922C25.6692 24.5621 26.6306 23.2017 27.2949 21.6921C27.9592 20.1825 28.3128 18.5547 28.3347 16.9055C28.388 13.5589 27.0947 10.3855 24.7213 8.01221C23.5765 6.86753 22.2168 5.96025 20.7204 5.34246C19.224 4.72467 17.6203 4.40853 16.0013 4.41221Z" fill="black"/>
<path d="M16 25.1323C13.8933 25.1323 11.8 24.3723 10.2 22.8656C10.0089 22.6825 9.8976 22.4316 9.89011 22.1671C9.88263 21.9026 9.97958 21.6458 10.16 21.4523C10.5467 21.0523 11.1733 21.0389 11.5733 21.4123C14.0133 23.7189 17.9867 23.7189 20.4267 21.4123C20.8267 21.0389 21.4667 21.0523 21.84 21.4523C22.2133 21.8523 22.2 22.4923 21.8 22.8656C20.2 24.3723 18.1067 25.1323 16 25.1323Z" fill="black"/>
</svg>
