<svg width="56" height="57" viewBox="0 0 56 57" fill="none" xmlns="http://www.w3.org/2000/svg">
<path d="M28 0.359863C12.544 0.359863 0 12.9039 0 28.3599C0 43.8159 12.544 56.3599 28 56.3599C43.456 56.3599 56 43.8159 56 28.3599C56 12.9039 43.456 0.359863 28 0.359863ZM19.6 17.1599C21.14 17.1599 22.4 18.4199 22.4 19.9599C22.4 21.4999 21.168 22.7599 19.6 22.7599C18.06 22.7599 16.8 21.4999 16.8 19.9599C16.8 18.4199 18.06 17.1599 19.6 17.1599ZM21.084 38.2439C20.664 38.6639 20.132 38.8599 19.6 38.8599C19.068 38.8599 18.536 38.6639 18.116 38.2439C17.7255 37.8487 17.5064 37.3155 17.5064 36.7599C17.5064 36.2043 17.7255 35.671 18.116 35.2759L34.916 18.4759C35.728 17.6639 37.072 17.6639 37.884 18.4759C38.696 19.2879 38.696 20.6319 37.884 21.4439L21.084 38.2439ZM36.4 39.5599C34.832 39.5599 33.572 38.2999 33.572 36.7599C33.572 35.2199 34.832 33.9599 36.372 33.9599C37.912 33.9599 39.172 35.2199 39.172 36.7599C39.172 38.2999 37.94 39.5599 36.4 39.5599Z" fill="black"/>
</svg>
