<svg width="48" height="57" viewBox="0 0 48 57" fill="none" xmlns="http://www.w3.org/2000/svg">
<path d="M41.7528 6.53644L26.4332 0.79856C24.8456 0.213631 22.2552 0.213631 20.6675 0.79856L5.34792 6.53644C2.39542 7.65059 0 11.1045 0 14.2519V36.8135C0 39.0696 1.47625 42.05 3.28674 43.387L18.6063 54.8349C21.3081 56.8682 25.7369 56.8682 28.4387 54.8349L43.7583 43.387C45.5688 42.0221 47.045 39.0696 47.045 36.8135V14.2519C47.0729 11.1045 44.6774 7.65059 41.7528 6.53644ZM31.0012 33.9724C30.5834 34.3902 30.0542 34.5852 29.525 34.5852C28.9958 34.5852 28.4665 34.3902 28.0487 33.9724L23.62 29.5436L19.052 34.1117C18.6342 34.5295 18.1049 34.7244 17.5757 34.7244C17.0465 34.7244 16.5173 34.5295 16.0995 34.1117C15.711 33.7185 15.4931 33.1881 15.4931 32.6354C15.4931 32.0827 15.711 31.5523 16.0995 31.1592L20.6675 26.5911L16.2109 22.1345C15.8224 21.7414 15.6045 21.211 15.6045 20.6583C15.6045 20.1056 15.8224 19.5752 16.2109 19.182C17.0187 18.3743 18.3556 18.3743 19.1634 19.182L23.5921 23.6108L27.9095 19.2935C28.7172 18.4857 30.0542 18.4857 30.862 19.2935C31.6697 20.1012 31.6697 21.4382 30.862 22.246L26.5446 26.5633L30.9734 30.992C31.809 31.8277 31.809 33.1368 31.0012 33.9724Z" fill="black"/>
</svg>
