<svg width="56" height="57" viewBox="0 0 56 57" fill="none" xmlns="http://www.w3.org/2000/svg">
<path d="M28 0.359863C12.572 0.359863 0 12.9319 0 28.3599C0 43.7879 12.572 56.3599 28 56.3599C43.428 56.3599 56 43.7879 56 28.3599C56 12.9319 43.428 0.359863 28 0.359863ZM41.384 21.9199L25.508 37.7959C25.1142 38.1891 24.5805 38.41 24.024 38.41C23.4675 38.41 22.9338 38.1891 22.54 37.7959L14.616 29.8719C14.2255 29.4767 14.0064 28.9435 14.0064 28.3879C14.0064 27.8323 14.2255 27.299 14.616 26.9039C15.428 26.0919 16.772 26.0919 17.584 26.9039L24.024 33.3439L38.416 18.9519C39.228 18.1399 40.572 18.1399 41.384 18.9519C42.196 19.7639 42.196 21.0799 41.384 21.9199Z" fill="black"/>
</svg>
