<svg width="32" height="33" viewBox="0 0 32 33" fill="none" xmlns="http://www.w3.org/2000/svg">
<path d="M22.6667 3.94556H9.33335C5.33335 3.94556 2.66669 6.61222 2.66669 10.6122V18.6122C2.66669 22.6122 5.33335 25.2789 9.33335 25.2789V28.1189C9.33335 29.1856 10.52 29.8256 11.4 29.2256L17.3334 25.2789H22.6667C26.6667 25.2789 29.3334 22.6122 29.3334 18.6122V10.6122C29.3334 6.61222 26.6667 3.94556 22.6667 3.94556ZM16 20.1722C15.7348 20.1722 15.4804 20.0669 15.2929 19.8793C15.1054 19.6918 15 19.4374 15 19.1722C15 18.907 15.1054 18.6527 15.2929 18.4651C15.4804 18.2776 15.7348 18.1722 16 18.1722C16.2652 18.1722 16.5196 18.2776 16.7071 18.4651C16.8947 18.6527 17 18.907 17 19.1722C17 19.4374 16.8947 19.6918 16.7071 19.8793C16.5196 20.0669 16.2652 20.1722 16 20.1722ZM17.68 14.6389C17.16 14.9856 17 15.2122 17 15.5856V15.8656C17 16.4122 16.5467 16.8656 16 16.8656C15.4534 16.8656 15 16.4122 15 15.8656V15.5856C15 14.0389 16.1334 13.2789 16.56 12.9856C17.0534 12.6522 17.2134 12.4256 17.2134 12.0789C17.2134 11.4122 16.6667 10.8656 16 10.8656C15.3334 10.8656 14.7867 11.4122 14.7867 12.0789C14.7867 12.6256 14.3334 13.0789 13.7867 13.0789C13.24 13.0789 12.7867 12.6256 12.7867 12.0789C12.7867 10.3056 14.2267 8.86556 16 8.86556C17.7734 8.86556 19.2134 10.3056 19.2134 12.0789C19.2134 13.5989 18.0934 14.3589 17.68 14.6389Z" fill="#A7A7A7"/>
</svg>
