<svg width="48" height="48" viewBox="0 0 48 48" fill="none" xmlns="http://www.w3.org/2000/svg">
<path d="M24 4C12.98 4 4 12.98 4 24C4 35.02 12.98 44 24 44C35.02 44 44 35.02 44 24C44 12.98 35.02 4 24 4ZM32.7 31.14C32.5999 31.3104 32.4669 31.4593 32.3087 31.5779C32.1506 31.6965 31.9704 31.7825 31.7788 31.8308C31.5871 31.8792 31.3877 31.889 31.1922 31.8597C30.9967 31.8304 30.809 31.7625 30.64 31.66L24.44 27.96C22.9 27.04 21.76 25.02 21.76 23.24V15.04C21.76 14.22 22.44 13.54 23.26 13.54C24.08 13.54 24.76 14.22 24.76 15.04V23.24C24.76 23.96 25.36 25.02 25.98 25.38L32.18 29.08C32.9 29.5 33.14 30.42 32.7 31.14Z" fill="white"/>
</svg>
