<svg width="24" height="24" viewBox="0 0 24 24" fill="none" xmlns="http://www.w3.org/2000/svg">
<path d="M21.98 11.41C21.64 5.60996 16.37 1.13996 10.3 2.13996C6.11999 2.82996 2.76999 6.21996 2.11999 10.4C1.73999 12.82 2.23999 15.11 3.32999 17L2.43999 20.31C2.23999 21.06 2.92999 21.74 3.66999 21.53L6.92999 20.63C8.40999 21.5 10.14 22 11.99 22C17.63 22 22.31 17.03 21.98 11.41ZM16.88 15.72C16.6388 16.2147 16.2268 16.6054 15.72 16.82C15.42 16.95 15.09 17.01 14.74 17.01C14.23 17.01 13.68 16.89 13.11 16.64C12.5025 16.3732 11.9258 16.0413 11.39 15.65C10.81 15.23 10.27 14.76 9.74999 14.25C9.22999 13.73 8.76999 13.18 8.34999 12.61C7.93999 12.04 7.60999 11.47 7.36999 10.9C7.12999 10.33 7.00999 9.77996 7.00999 9.25996C7.00999 8.91996 7.06999 8.58996 7.18999 8.28996C7.30999 7.97996 7.49999 7.69996 7.76999 7.44996C8.08999 7.12996 8.43999 6.97996 8.80999 6.97996C8.94999 6.97996 9.08999 7.00996 9.21999 7.06996C9.34999 7.12996 9.46999 7.21996 9.55999 7.34996L10.72 8.98996C10.81 9.11996 10.88 9.22996 10.92 9.33996C10.97 9.44996 10.99 9.54996 10.99 9.64996C10.99 9.76996 10.95 9.88996 10.88 10.01C10.81 10.13 10.72 10.25 10.6 10.37L10.22 10.77C10.16 10.83 10.14 10.89 10.14 10.97C10.14 11.01 10.15 11.05 10.16 11.09C10.18 11.13 10.19 11.16 10.2 11.19C10.29 11.36 10.45 11.57 10.67 11.83C11.1382 12.3801 11.6498 12.8918 12.2 13.36C12.46 13.58 12.68 13.73 12.85 13.82C12.88 13.83 12.91 13.85 12.94 13.86C12.98 13.88 13.02 13.88 13.07 13.88C13.16 13.88 13.22 13.85 13.28 13.79L13.66 13.41C13.79 13.28 13.91 13.19 14.02 13.13C14.14 13.06 14.25 13.02 14.38 13.02C14.48 13.02 14.58 13.04 14.69 13.09C14.8 13.14 14.92 13.2 15.04 13.29L16.7 14.47C16.83 14.56 16.92 14.67 16.98 14.79C17.03 14.92 17.06 15.04 17.06 15.18C17 15.35 16.96 15.54 16.88 15.72Z" fill="white"/>
</svg>
