<svg width="48" height="48" viewBox="0 0 48 48" fill="none" xmlns="http://www.w3.org/2000/svg">
<path d="M43.96 22.82C43.28 11.22 32.74 2.28005 20.6 4.28005C12.24 5.66005 5.53998 12.44 4.23998 20.8C3.47998 25.64 4.47998 30.22 6.65998 34L4.87998 40.62C4.47998 42.12 5.85998 43.48 7.33998 43.06L13.86 41.26C16.82 43 20.28 44 23.98 44C35.26 44 44.62 34.06 43.96 22.82ZM33.76 31.44C33.2777 32.4295 32.4536 33.2109 31.44 33.64C30.84 33.9 30.18 34.02 29.48 34.02C28.46 34.02 27.36 33.78 26.22 33.28C25.005 32.7466 23.8516 32.0827 22.78 31.3C21.62 30.46 20.54 29.52 19.5 28.5C18.46 27.46 17.54 26.36 16.7 25.22C15.88 24.08 15.22 22.94 14.74 21.8C14.26 20.66 14.02 19.56 14.02 18.52C14.02 17.84 14.14 17.18 14.38 16.58C14.62 15.96 15 15.4 15.54 14.9C16.18 14.26 16.88 13.96 17.62 13.96C17.9 13.96 18.18 14.02 18.44 14.14C18.7 14.26 18.94 14.44 19.12 14.7L21.44 17.98C21.62 18.24 21.76 18.46 21.84 18.68C21.94 18.9 21.98 19.1 21.98 19.3C21.98 19.54 21.9 19.78 21.76 20.02C21.62 20.26 21.44 20.5 21.2 20.74L20.44 21.54C20.32 21.66 20.28 21.78 20.28 21.94C20.28 22.02 20.3 22.1 20.32 22.18C20.36 22.26 20.38 22.32 20.4 22.38C20.58 22.72 20.9 23.14 21.34 23.66C22.2764 24.7604 23.2996 25.7837 24.4 26.72C24.92 27.16 25.36 27.46 25.7 27.64C25.76 27.66 25.82 27.7 25.88 27.72C25.96 27.76 26.04 27.76 26.14 27.76C26.32 27.76 26.44 27.7 26.56 27.58L27.32 26.82C27.58 26.56 27.82 26.38 28.04 26.26C28.28 26.12 28.5 26.04 28.76 26.04C28.96 26.04 29.16 26.08 29.38 26.18C29.6 26.28 29.84 26.4 30.08 26.58L33.4 28.94C33.66 29.12 33.84 29.34 33.96 29.58C34.06 29.84 34.12 30.08 34.12 30.36C34 30.7 33.92 31.08 33.76 31.44Z" fill="white"/>
</svg>
